<svg version="1.1" id="Layer_1" xmlns="http://www.w3.org/2000/svg" xmlns:xlink="http://www.w3.org/1999/xlink" x="0px" y="0px"
	 width="100%" viewBox="0 0 496 496" enable-background="new 0 0 496 496" xml:space="preserve">
<path fill="#000000" opacity="1.000000" stroke="none" 
	d="
M422.134094,160.940796 
	C438.067627,191.627914 445.253571,224.044617 444.014404,258.076385 
	C442.383148,302.877747 426.653168,342.427307 397.426941,376.519012 
	C370.445190,407.992584 336.752411,428.899200 296.570923,438.603729 
	C206.453903,460.368591 115.097313,416.649933 75.654877,333.075073 
	C63.807446,307.971527 57.758820,281.448853 57.549419,253.450714 
	C57.040733,185.437424 85.624954,132.250992 139.626099,92.446838 
	C166.366928,72.736221 196.983368,61.830399 230.224854,58.559582 
	C263.847565,55.251244 296.349030,59.464287 327.351715,73.034142 
	C368.961792,91.246834 400.469818,120.568573 422.134094,160.940796 
M196.380783,423.053192 
	C228.444366,433.038391 261.038239,434.200592 293.437469,426.191071 
	C384.311768,403.725739 444.209259,316.224182 428.690460,222.635025 
	C418.760254,162.749008 386.124512,118.432648 332.628296,90.271111 
	C294.130219,70.004898 253.034164,65.342934 210.458755,75.018066 
	C170.710526,84.050728 137.556564,104.246353 111.793503,135.588211 
	C80.489342,173.671036 66.626633,217.543869 71.106148,267.037445 
	C72.928047,287.167480 77.699715,306.434570 86.123421,324.674622 
	C108.472618,373.067810 145.102676,405.738708 196.380783,423.053192 
z"/>
<path fill="#000000" opacity="1.000000" stroke="none" 
	d="
M382.341858,249.013000 
	C384.607056,304.517181 348.327179,354.088440 300.344666,373.155243 
	C245.314529,395.022583 182.889191,379.353180 146.422440,330.641754 
	C86.811218,251.014496 131.394608,138.313904 229.484116,121.703644 
	C301.415253,109.522980 367.135284,156.313858 380.473419,228.201599 
	C381.721832,234.930176 382.618408,241.661179 382.341858,249.013000 
M159.364410,332.146606 
	C187.335983,362.076447 221.368774,376.455719 262.626678,372.825317 
	C286.743073,370.703247 308.102112,361.956177 326.993286,347.045105 
	C372.962219,310.761261 386.829712,247.414474 359.870148,195.446030 
	C335.901337,149.242615 285.212646,120.819046 228.101425,131.159149 
	C176.789078,140.449326 134.296783,185.317184 129.511337,237.024338 
	C126.237938,272.393402 135.488602,304.309540 159.364410,332.146606 
z"/>
<path fill="#000000" opacity="1.000000" stroke="none" 
	d="
M404.949646,307.318970 
	C401.073669,307.635620 397.499756,306.579224 393.642975,308.778351 
	C396.167419,313.029480 399.998138,315.967682 403.067505,319.507965 
	C404.539856,321.206238 405.676666,322.721985 404.678741,325.268127 
	C403.541504,328.169586 402.169159,329.200623 399.078613,327.847870 
	C392.838806,325.116577 386.490234,322.633789 380.185974,320.049805 
	C378.180969,319.227966 376.621918,318.250671 377.680145,315.602234 
	C378.686432,313.083832 380.161682,312.355316 382.725800,313.462585 
	C385.257904,314.556061 387.907196,315.378143 391.841492,316.803436 
	C388.887726,313.631317 386.834930,311.522858 384.897339,309.313416 
	C383.527771,307.751648 381.427887,306.377380 382.670837,303.770020 
	C383.751404,301.503265 385.920715,301.772034 387.883575,301.735657 
	C390.988922,301.678070 394.096161,301.720306 397.359131,300.820648 
	C394.556183,299.614838 391.769531,298.369080 388.945190,297.215607 
	C386.608398,296.261261 386.103699,294.783264 387.090424,292.471771 
	C388.100098,290.106598 389.544098,289.700470 391.823730,290.667847 
	C398.095856,293.329468 404.429993,295.844849 410.706055,298.497375 
	C412.280365,299.162720 414.630157,299.489990 413.917419,302.082642 
	C413.269440,304.439606 412.721466,307.112885 409.403656,307.216034 
	C408.074280,307.257416 406.744324,307.282074 404.949646,307.318970 
z"/>
<path fill="#000000" opacity="1.000000" stroke="none" 
	d="
M364.564331,148.799103 
	C364.494202,146.424362 366.096985,144.648758 365.204834,142.153778 
	C361.812012,143.486481 359.709900,146.338943 357.144196,148.508575 
	C355.091248,150.244614 353.435516,151.779724 350.960388,148.888977 
	C348.652191,146.193222 350.262878,144.815338 352.134827,143.185776 
	C356.779205,139.142731 361.334686,134.996063 366.030792,131.014740 
	C367.538055,129.736877 368.870178,127.188637 371.459930,128.929306 
	C373.879547,130.555618 374.829071,132.994827 374.220642,135.904388 
	C373.371277,139.965958 372.439972,144.010513 371.604218,148.074783 
	C371.348175,149.319901 371.290527,150.605820 371.053558,152.627716 
	C374.797363,149.469513 377.958252,146.829193 381.088318,144.152832 
	C383.004730,142.514221 384.386536,143.414474 385.712341,144.988632 
	C386.872406,146.365952 387.790314,147.806244 386.038361,149.293625 
	C379.597443,154.761902 373.668060,160.849762 366.775299,165.704407 
	C362.957550,163.659653 361.469513,160.982666 362.678223,156.949738 
	C363.439362,154.410110 363.905975,151.782211 364.564331,148.799103 
z"/>
<path fill="#000000" opacity="1.000000" stroke="none" 
	d="
M103.106934,289.453979 
	C96.646912,292.421906 90.976868,291.623016 86.197624,286.977997 
	C82.097107,282.992615 80.639557,277.973389 82.321068,272.352600 
	C84.232635,265.962769 89.987907,261.725525 96.470161,261.759186 
	C102.563637,261.790833 108.319168,265.965302 110.106949,271.649872 
	C112.276489,278.548279 109.948044,284.724792 103.106934,289.453979 
M90.094391,280.481476 
	C94.293343,284.517456 98.403702,284.849670 101.685295,281.418304 
	C104.643257,278.325348 104.406876,273.725494 101.046112,270.873047 
	C98.308578,268.549561 95.218880,268.487396 92.327019,270.364288 
	C88.778046,272.667633 87.957581,275.980682 90.094391,280.481476 
z"/>
<path fill="#000000" opacity="1.000000" stroke="none" 
	d="
M392.751190,225.266296 
	C396.628418,218.807556 402.170166,215.887375 408.187378,216.834427 
	C414.075073,217.761108 419.083282,222.061050 420.072266,227.519531 
	C421.178802,233.626862 420.076141,239.133682 414.672852,243.082596 
	C409.781403,246.657440 402.874207,246.798981 397.816956,243.378983 
	C392.248199,239.613052 390.406708,233.345688 392.751190,225.266296 
M410.336945,225.190338 
	C407.193878,223.093918 404.106628,223.197830 401.256439,225.657959 
	C398.996368,227.608734 397.684265,230.059387 398.769684,233.124557 
	C399.813141,236.071274 401.537964,238.348175 405.009094,238.694611 
	C408.551941,239.048203 411.099731,237.628601 412.752808,234.555710 
	C414.617065,231.090164 413.471863,228.207336 410.336945,225.190338 
z"/>
<path fill="#000000" opacity="1.000000" stroke="none" 
	d="
M146.637558,125.384026 
	C147.405014,126.536949 148.315079,127.387268 148.337296,128.260193 
	C148.507965,134.962769 152.925491,136.534714 158.443390,137.010513 
	C159.174469,137.073547 159.850388,137.776321 160.656372,138.243393 
	C156.535446,147.469742 149.524292,139.790848 143.866669,141.304916 
	C144.715683,143.942200 146.931381,145.336899 148.414597,147.231262 
	C149.732101,148.913971 149.496170,150.223358 147.995224,151.539658 
	C146.709763,152.666992 145.310211,154.020355 143.689972,152.391434 
	C137.626465,146.295502 131.670944,140.092163 125.772591,134.029449 
	C134.200150,122.652641 139.328323,120.536537 146.637558,125.384026 
M137.606003,135.643799 
	C140.864044,136.241211 142.226364,134.400558 142.134277,131.581329 
	C142.090515,130.240875 140.535248,129.128357 139.144333,130.069305 
	C137.434753,131.225815 134.408432,132.277725 137.606003,135.643799 
z"/>
<path fill="#000000" opacity="1.000000" stroke="none" 
	d="
M106.013229,325.107788 
	C104.131470,325.901276 102.606102,326.571259 101.056686,327.180054 
	C99.729759,327.701416 98.367668,327.924377 97.659729,326.288849 
	C96.010048,322.477570 93.901031,318.757568 92.969009,314.769073 
	C91.665970,309.192810 97.583061,303.270142 103.067078,305.100159 
	C107.846558,306.695129 109.338776,304.541809 111.126396,301.268677 
	C111.984276,299.697906 112.889900,298.054871 114.828247,297.037109 
	C122.232513,303.786499 112.586517,307.858795 112.208679,313.302032 
	C114.351700,314.164001 115.853271,312.775909 117.450737,312.105865 
	C119.773224,311.131775 121.706337,310.364288 123.138557,313.512573 
	C124.552574,316.620819 122.946976,317.611511 120.498970,318.641388 
	C115.741936,320.642792 111.067719,322.841034 106.013229,325.107788 
M101.337151,312.131775 
	C100.845627,312.754303 99.996262,313.342468 99.932556,314.006104 
	C99.769470,315.704681 100.324043,317.369904 101.977951,318.126404 
	C103.082893,318.631805 104.357323,318.041962 105.062477,317.125580 
	C106.374588,315.420410 105.186333,314.005829 104.055771,312.824890 
	C103.561714,312.308807 102.632256,312.209564 101.337151,312.131775 
z"/>
<path fill="#000000" opacity="1.000000" stroke="none" 
	d="
M299.300537,110.771561 
	C299.674622,112.373764 300.646484,113.563057 299.496002,115.115669 
	C290.379028,116.244835 293.096252,106.703072 288.800018,103.007408 
	C286.790161,104.518463 286.861328,106.980804 286.188324,109.029846 
	C285.550568,110.971626 284.358521,111.791702 282.422180,111.154160 
	C280.930634,110.663078 278.577179,110.453041 279.128113,108.221344 
	C281.218811,99.752556 283.589600,91.352913 285.843353,82.973251 
	C290.894257,83.420830 294.876434,84.663902 298.689514,86.196953 
	C304.773071,88.642853 306.487579,96.549622 301.266113,100.376884 
	C296.848206,103.615120 297.445007,106.569069 299.300537,110.771561 
M291.622742,96.047569 
	C293.744537,96.818504 296.076324,97.530640 296.471558,94.297859 
	C296.708740,92.357727 294.915100,91.361557 293.162659,91.500336 
	C290.545441,91.707603 289.908020,93.303749 291.622742,96.047569 
z"/>
<path fill="#000000" opacity="1.000000" stroke="none" 
	d="
M395.109100,258.673218 
	C402.758209,259.475128 410.004913,260.323547 417.256714,261.126495 
	C420.653137,261.502502 421.764801,263.309479 421.078644,266.589142 
	C420.536377,269.181183 420.481903,271.889923 419.793488,274.433929 
	C417.933777,281.306244 410.089508,284.025330 405.404724,278.920776 
	C402.258820,275.493011 400.062500,276.349915 396.994965,278.050385 
	C395.301849,278.988953 393.699524,280.383972 391.263031,280.034454 
	C388.254150,270.486267 399.031952,272.134308 401.859802,267.292999 
	C399.173340,264.951538 394.375153,267.344116 392.913513,263.238312 
	C392.351776,261.660339 392.301697,259.490082 395.109100,258.673218 
M408.483795,271.951447 
	C409.201385,273.616730 410.118958,275.008789 412.197784,273.811462 
	C413.702881,272.944641 413.847778,271.397095 413.668884,269.867615 
	C413.480927,268.260345 412.281250,267.571716 410.855103,267.649078 
	C408.610626,267.770721 408.455658,269.534912 408.483795,271.951447 
z"/>
<path fill="#000000" opacity="1.000000" stroke="none" 
	d="
M171.006943,121.188583 
	C173.379074,124.905403 175.087494,121.689651 176.847351,120.867104 
	C179.077667,119.824646 181.082001,117.758629 183.065125,121.236778 
	C184.944611,124.533142 182.158386,125.280754 180.337708,126.446999 
	C169.613876,133.316162 169.598907,133.296265 163.010056,122.413528 
	C160.855560,118.854996 158.785645,115.242493 156.537079,111.744659 
	C155.057465,109.442978 155.252609,107.875580 157.779694,106.504387 
	C160.701141,104.919197 163.494690,103.094582 166.315262,101.328407 
	C168.153534,100.177322 169.780838,99.369751 171.310608,101.883018 
	C172.687592,104.145309 172.032288,105.594810 169.978149,106.815224 
	C168.691238,107.579803 167.438934,108.402412 166.156555,109.174843 
	C164.899765,109.931839 164.748917,110.942589 165.464005,112.129829 
	C166.178268,113.315773 167.124100,113.651291 168.397064,112.898804 
	C169.541855,112.222092 170.748947,111.651688 171.905640,110.994095 
	C173.835739,109.896812 174.975037,110.831413 175.991486,112.426834 
	C177.091507,114.153496 176.856262,115.390610 175.157257,116.643433 
	C173.544678,117.832512 170.896179,118.096611 171.006943,121.188583 
z"/>
<path fill="#000000" opacity="1.000000" stroke="none" 
	d="
M338.944153,125.096077 
	C335.889709,126.598495 336.072937,128.192825 338.528564,129.883652 
	C339.761017,130.732254 340.957031,131.635391 342.148285,132.541809 
	C343.657440,133.690201 343.567535,135.002472 342.548798,136.446625 
	C341.491974,137.944778 340.313782,139.047623 338.437805,137.749191 
	C335.018951,135.382858 331.622742,132.983047 328.247040,130.555511 
	C326.700012,129.442993 326.846222,128.060989 327.840393,126.644180 
	C332.140259,120.516098 336.462219,114.403412 340.735718,108.257027 
	C342.111725,106.277901 343.603058,106.372696 345.382965,107.660599 
	C347.808502,109.415680 350.345703,111.020271 352.726776,112.831673 
	C354.586548,114.246506 357.558716,115.357391 355.105103,118.610931 
	C352.926971,121.499153 351.043274,119.402267 349.146057,118.228218 
	C347.084717,116.952629 345.063141,114.893211 343.021881,118.109604 
	C343.208252,120.332397 345.088287,120.765747 346.321075,121.740639 
	C348.057159,123.113571 349.200439,124.380096 347.639008,126.710312 
	C346.053436,129.076584 344.468109,128.526321 342.617096,127.227501 
	C341.532623,126.466522 340.364288,125.825027 338.944153,125.096077 
z"/>
<path fill="#000000" opacity="1.000000" stroke="none" 
	d="
M366.664978,332.720886 
	C368.543640,329.280853 370.537628,328.664734 373.568512,331.043030 
	C378.918976,335.241425 384.449982,339.213104 389.968475,343.192230 
	C391.954803,344.624481 392.528290,346.025665 390.878937,348.109283 
	C388.613892,350.970673 386.422546,353.895081 384.311218,356.871674 
	C382.981018,358.746948 381.620270,359.048370 379.736725,357.669373 
	C377.835541,356.277496 377.746216,354.812897 379.149353,353.054535 
	C379.769501,352.277374 380.342560,351.458008 380.882935,350.622864 
	C381.807831,349.193390 383.846649,347.730133 381.418427,346.070923 
	C379.150543,344.521271 378.165955,346.699524 377.125793,348.066345 
	C375.628998,350.033203 374.330994,351.891724 371.551025,349.726532 
	C368.910492,347.669952 370.581512,346.101624 371.816895,344.298981 
	C372.880188,342.747467 374.856262,340.939484 372.224487,339.282745 
	C369.816864,337.767090 369.314392,340.582306 368.113281,341.668793 
	C367.384338,342.328217 366.817841,343.179047 366.232971,343.983551 
	C364.951996,345.745575 363.555969,345.557129 361.970856,344.392242 
	C360.376465,343.220612 359.824829,341.913330 361.106171,340.192505 
	C362.889954,337.796936 364.678802,335.405121 366.664978,332.720886 
z"/>
<path fill="#000000" opacity="1.000000" stroke="none" 
	d="
M109.150711,204.447388 
	C110.229774,201.644287 112.036385,202.152802 113.844864,202.787613 
	C115.800133,203.473953 115.397705,205.072113 115.225609,206.556824 
	C115.187569,206.885040 115.094597,207.210037 114.998352,207.527878 
	C110.265320,223.157684 114.004173,220.565094 99.102051,217.008423 
	C95.384628,216.121201 91.759552,214.832077 88.027878,214.023911 
	C84.496452,213.259125 83.853737,211.384354 84.946938,208.230438 
	C85.925575,205.406998 86.740334,202.518097 87.461418,199.616837 
	C88.016037,197.385300 88.830414,195.989822 91.546135,196.610336 
	C94.337410,197.248093 94.450783,198.890564 93.705956,201.095215 
	C93.546707,201.566544 93.348976,202.060532 93.349457,202.543900 
	C93.351318,204.408524 90.826698,207.049942 94.415573,207.870560 
	C97.424568,208.558594 97.046478,205.501053 97.655762,203.864304 
	C98.452858,201.722961 99.408379,200.275757 101.981705,201.006287 
	C104.622383,201.755936 104.617676,203.613678 104.012299,205.748413 
	C103.785995,206.546432 103.541122,207.345428 103.402039,208.160599 
	C103.129150,209.759903 103.881958,210.704269 105.429398,211.038986 
	C107.001183,211.378998 107.458069,210.304138 107.797188,209.116684 
	C108.207848,207.678665 108.602913,206.236221 109.150711,204.447388 
z"/>
<path fill="#000000" opacity="1.000000" stroke="none" 
	d="
M268.829834,82.920883 
	C268.233002,87.056038 265.358856,86.121361 262.981049,86.282806 
	C261.295654,86.397240 258.820892,85.487701 258.531647,88.129707 
	C258.176971,91.370018 261.005676,90.549805 262.789856,90.695518 
	C265.026367,90.878166 266.735168,91.347450 266.595154,94.117462 
	C266.460297,96.785751 264.833344,97.406120 262.548157,97.285370 
	C261.720154,97.241615 260.886566,97.283432 260.056213,97.309196 
	C258.543030,97.356155 257.436829,97.916931 257.491760,99.641304 
	C257.538422,101.107353 258.552399,101.588066 259.839264,101.668228 
	C260.834045,101.730194 261.833923,101.825600 262.826630,101.785439 
	C267.510559,101.595894 268.225739,103.903961 266.639038,107.866432 
	C265.837097,108.007652 265.037292,108.235016 264.227692,108.278198 
	C250.324265,109.019806 250.325195,109.014847 250.661758,95.483566 
	C250.765045,91.330978 250.814743,87.176445 250.974548,83.026100 
	C251.083786,80.189247 252.364456,78.888870 255.473053,79.303146 
	C258.585327,79.717918 261.767517,79.624962 264.920227,79.713577 
	C266.875153,79.768539 268.634155,80.028519 268.829834,82.920883 
z"/>
<path fill="#000000" opacity="1.000000" stroke="none" 
	d="
M130.027985,341.418640 
	C132.067093,340.014191 133.792023,338.703644 135.630905,337.579529 
	C137.642181,336.350006 138.646927,337.930328 139.649567,339.277802 
	C140.592682,340.545380 141.414673,341.962372 139.775360,343.193329 
	C132.907486,348.350281 125.982567,353.431274 119.070511,358.546021 
	C115.470589,355.189117 113.082382,351.785553 110.987930,348.227570 
	C108.523933,344.041870 109.645470,339.334625 113.379349,336.735413 
	C117.299370,334.006622 121.397163,334.641418 125.081734,338.154968 
	C126.452454,339.462097 126.636803,342.632202 130.027985,341.418640 
M119.647217,348.154358 
	C122.111412,347.712341 123.298599,346.572479 121.701141,344.116821 
	C120.846992,342.803772 119.454918,341.573120 118.042534,342.710938 
	C115.435753,344.810974 117.808990,346.361450 119.647217,348.154358 
z"/>
<path fill="#000000" opacity="1.000000" stroke="none" 
	d="
M199.816620,117.114746 
	C197.633713,116.756783 195.780167,116.566177 194.104675,115.916451 
	C192.635727,115.346817 190.646774,114.511078 191.704269,112.347733 
	C192.539291,110.639511 193.562790,108.590508 196.155884,109.212868 
	C198.400864,109.751678 200.667603,110.735611 202.587982,107.967842 
	C201.302200,105.150490 198.706360,105.371849 196.316986,105.400635 
	C192.389908,105.447937 188.965622,104.666733 187.366135,100.554306 
	C186.036026,97.134468 186.532379,93.986794 189.202591,91.369118 
	C192.389069,88.245331 196.299606,88.020340 200.387741,88.845627 
	C201.628387,89.096077 202.643295,89.887100 202.306244,91.287827 
	C201.879776,93.060158 201.308502,94.891098 199.047348,95.209267 
	C197.513824,95.425064 195.646606,94.732506 194.740311,96.678482 
	C195.198196,98.858925 196.872910,98.563393 198.311890,98.687477 
	C206.543457,99.397255 209.689987,101.491508 210.226151,106.625328 
	C210.742050,111.565079 207.448364,115.008408 199.816620,117.114746 
z"/>
<path fill="#000000" opacity="1.000000" stroke="none" 
	d="
M404.199677,185.315094 
	C407.176514,183.959274 408.910797,184.533875 409.843750,187.481720 
	C410.892914,190.796677 412.152283,194.048203 413.405426,197.294418 
	C414.220734,199.406509 413.770935,200.685593 411.518188,201.501999 
	C409.241516,202.327103 408.365051,201.384781 407.296021,199.488724 
	C406.143982,197.445480 406.625244,192.806610 403.076935,194.037079 
	C399.072723,195.425659 403.055817,198.814804 402.879364,201.323578 
	C402.856445,201.649628 402.798737,201.973251 402.729187,202.516113 
	C400.328979,204.133286 397.666199,205.823792 396.337524,201.472000 
	C394.955505,196.945633 392.440857,196.901825 388.815979,198.559799 
	C387.287201,199.259033 385.549042,200.527679 383.798004,198.820435 
	C381.495239,196.575241 382.088837,193.538040 385.192657,192.354584 
	C391.388824,189.992004 397.629974,187.747299 404.199677,185.315094 
z"/>
<path fill="#000000" opacity="1.000000" stroke="none" 
	d="
M84.804031,230.404800 
	C90.704041,230.801727 96.176590,230.925690 101.641983,231.577820 
	C105.816895,232.075974 107.998184,234.295273 108.853783,237.999237 
	C109.771568,241.972366 108.912666,245.759567 105.686325,248.395248 
	C103.482819,250.195358 101.440987,249.971924 100.691940,246.499374 
	C100.181541,244.133148 101.459709,242.378784 102.343147,239.967560 
	C97.791801,237.050644 92.673294,238.426483 87.937912,238.113846 
	C85.961830,237.983353 86.374626,240.698135 86.352676,242.272247 
	C86.317688,244.781616 85.731117,246.494965 82.685921,246.263977 
	C79.785721,246.044006 79.688553,244.045105 79.830734,241.986542 
	C80.047981,238.840775 80.442238,235.707123 80.767014,232.568924 
	C81.004639,230.272766 82.529823,230.041000 84.804031,230.404800 
z"/>
<path fill="#000000" opacity="1.000000" stroke="none" 
	d="
M106.895607,173.231384 
	C111.962456,176.015839 116.790413,178.583496 121.684349,181.018585 
	C123.968704,182.155228 125.018333,183.407623 123.711006,186.072266 
	C122.397926,188.748657 120.780510,188.690842 118.490761,187.510727 
	C113.352081,184.862350 108.150429,182.336136 103.206528,179.875702 
	C102.521103,180.242325 102.172340,180.336212 101.956573,180.558929 
	C100.228363,182.342972 99.668144,186.465210 95.699509,183.759140 
	C92.142662,181.333847 95.244942,179.040131 96.106270,176.899902 
	C97.339661,173.835098 99.014877,170.946564 100.528496,167.996628 
	C101.509720,166.084305 102.268852,163.867508 105.264580,165.017822 
	C108.357071,166.205292 108.036118,168.181519 106.863564,170.586243 
	C106.540298,171.249191 106.729607,172.162094 106.895607,173.231384 
z"/>
<path fill="#000000" opacity="1.000000" stroke="none" 
	d="
M224.171356,92.827141 
	C223.884094,89.445297 222.631393,87.785774 219.334351,88.424477 
	C217.134109,88.850723 216.450958,87.384537 216.061111,85.604912 
	C215.570908,83.367180 216.992447,82.529861 218.736633,82.229706 
	C223.624802,81.388535 228.538879,80.698540 233.440598,79.935188 
	C235.596954,79.599358 236.401031,80.919708 236.860168,82.675766 
	C237.367020,84.614380 236.826324,85.998398 234.694275,86.303741 
	C231.336227,86.784668 230.915970,89.010551 231.310989,91.768036 
	C231.873367,95.693771 232.546631,99.607018 232.976913,103.546967 
	C233.225266,105.820877 234.514801,108.658546 230.501953,109.311432 
	C226.501511,109.962280 226.244354,107.140892 225.829193,104.520493 
	C225.234512,100.766975 224.794952,96.988869 224.171356,92.827141 
z"/>
<path fill="#000000" opacity="1.000000" stroke="none" 
	d="
M166.844879,389.280457 
	C164.739899,389.371307 163.162720,389.080139 161.641800,388.237000 
	C156.994400,385.660492 156.713074,384.449585 159.974716,380.302582 
	C160.899200,379.127106 161.691666,377.802521 162.788116,376.817200 
	C164.873703,374.943085 165.495255,369.735321 170.208389,373.443695 
	C174.425766,376.761993 175.675507,381.856354 172.975967,385.707642 
	C171.599716,387.671082 169.817215,389.126617 166.844879,389.280457 
M162.467987,383.615265 
	C164.041565,387.083130 166.688461,386.330536 169.077560,384.974274 
	C170.876862,383.952850 171.795151,382.055939 171.208908,379.839050 
	C170.862030,378.527374 170.214935,377.221771 168.862900,376.802063 
	C166.453232,376.054077 165.858383,378.313690 164.780243,379.636505 
	C163.948273,380.657349 163.302277,381.829742 162.467987,383.615265 
z"/>
<path fill="#000000" opacity="1.000000" stroke="none" 
	d="
M217.739975,410.768738 
	C221.340179,413.726501 222.875366,411.897461 224.007919,408.657257 
	C224.999359,405.820709 224.625885,402.398499 227.272568,399.994049 
	C229.435257,403.750336 227.591156,412.206329 224.389877,414.420166 
	C221.580826,416.362762 217.041870,415.631073 214.979721,412.903290 
	C212.572327,409.718811 214.095795,401.334839 217.958328,397.967133 
	C219.697342,402.330505 216.021317,406.373535 217.739975,410.768738 
z"/>
<path fill="#000000" opacity="1.000000" stroke="none" 
	d="
M187.662384,385.296570 
	C189.311630,386.324158 191.092896,386.722626 191.439255,388.896698 
	C189.247498,390.772125 185.653839,385.716278 184.004898,389.986359 
	C184.446228,392.366669 188.250565,392.002808 187.636963,394.815277 
	C185.594238,397.019745 182.416260,392.036621 181.161331,395.864166 
	C180.197403,398.804169 185.589844,398.094604 185.033356,401.583740 
	C181.708801,402.704285 179.422607,400.297333 177.360825,398.600189 
	C175.321869,396.921722 177.550217,394.976929 178.402313,393.326843 
	C179.619720,390.969330 181.092224,388.744995 182.396973,386.430664 
	C183.622421,384.256958 185.242050,383.819061 187.662384,385.296570 
z"/>
<path fill="#000000" opacity="1.000000" stroke="none" 
	d="
M208.670105,398.162598 
	C208.164505,401.603302 206.276901,403.707001 203.249207,402.981720 
	C199.772980,402.148987 197.902405,402.901001 196.934784,406.289093 
	C196.797043,406.771423 195.996933,407.064606 195.619507,407.355774 
	C193.778809,406.807007 193.887665,405.657166 194.334152,404.497345 
	C195.228943,402.172974 195.993607,399.758942 197.216675,397.612488 
	C198.285110,395.737335 198.088470,392.276703 201.049301,392.450775 
	C204.349503,392.644836 207.632339,393.864014 208.670105,398.162598 
M200.935989,396.554749 
	C199.927032,398.802795 201.116608,399.591248 203.114838,399.713745 
	C204.168915,399.778320 205.378983,399.306641 205.224960,398.194397 
	C204.920715,395.997253 203.424835,395.309052 200.935989,396.554749 
z"/>
<path fill="#000000" opacity="1.000000" stroke="none" 
	d="
M254.045685,408.339081 
	C256.802795,409.682892 259.230652,411.001465 259.001678,414.247925 
	C258.846008,416.455322 257.338318,417.783539 255.283417,418.466309 
	C252.782639,419.297180 250.724335,418.492767 248.997894,416.661224 
	C248.518860,416.153076 248.409424,415.494934 248.971252,414.673309 
	C249.249893,414.609070 249.741684,414.335114 250.147202,414.429993 
	C251.911880,414.842865 254.148682,417.070923 255.218719,414.219208 
	C256.102509,411.863892 253.102142,411.790131 251.717072,410.875763 
	C249.849457,409.642761 248.020584,408.418396 248.391174,405.833008 
	C248.672287,403.871918 249.837936,402.405304 251.823242,401.999176 
	C253.771027,401.600647 255.774155,401.523285 256.738892,404.000519 
	C251.452118,405.442261 251.452118,405.442261 254.045685,408.339081 
z"/>
<path fill="#000000" opacity="1.000000" stroke="none" 
	d="
M235.822205,412.981506 
	C237.005402,408.966125 235.756943,404.767944 238.851303,401.588959 
	C241.119370,407.115936 239.334854,412.363098 238.627396,418.034241 
	C235.239838,417.138367 235.965332,415.065979 235.822205,412.981506 
z"/>
<path fill="#000000" opacity="1.000000" stroke="none" 
	d="
M320.391052,399.836548 
	C319.648132,396.995483 320.736420,394.773987 321.624390,392.441498 
	C323.759521,392.662842 322.494202,394.726196 324.036072,395.894684 
	C325.114166,396.467438 326.698792,393.640717 328.672363,395.612183 
	C326.583221,398.272400 324.040497,399.912476 320.391052,399.836548 
z"/>
<path fill="#000000" opacity="1.000000" stroke="none" 
	d="
M302.669342,405.351990 
	C305.346100,406.247345 306.576965,404.545135 308.143951,403.082092 
	C308.797668,406.035187 307.566223,407.654968 304.802612,408.107269 
	C301.213013,408.694733 298.631042,405.906128 297.982574,400.673889 
	C300.427155,401.384613 300.537384,404.168610 302.669342,405.351990 
z"/>
<path fill="#000000" opacity="1.000000" stroke="none" 
	d="
M281.375793,414.686249 
	C280.690247,412.126312 282.497864,410.980865 283.749054,409.466034 
	C285.256744,409.427917 284.623901,412.569794 286.857666,411.472504 
	C287.965851,410.928131 289.330719,410.503571 290.648041,412.099152 
	C288.036041,414.662445 284.775299,414.613495 281.375793,414.686249 
z"/>
<path fill="#000000" opacity="1.000000" stroke="none" 
	d="
M339.715424,385.638092 
	C341.699493,384.334778 341.699493,384.334778 344.734619,383.797729 
	C342.835541,386.492767 340.792938,388.246033 337.901825,389.072571 
	C336.934540,387.019958 338.464417,386.570374 339.715424,385.638092 
z"/>
<path fill="#000000" opacity="1.000000" stroke="none" 
	d="
M223.490677,259.005127 
	C220.381332,255.605423 218.277664,252.225189 218.622925,247.619034 
	C219.092560,241.353607 223.164169,238.308914 229.227295,240.215378 
	C233.370270,241.518082 237.297043,243.368408 240.745117,246.081238 
	C248.761795,252.388519 256.072723,259.418488 262.162384,267.625244 
	C268.044281,275.552002 267.489105,281.360321 260.421478,288.341278 
	C252.361465,296.302460 226.018555,304.040680 214.461517,301.736237 
	C214.761078,299.238861 217.009506,298.908478 218.630463,298.121368 
	C227.783279,293.676758 236.511093,288.492188 245.073395,283.027252 
	C246.860474,281.886627 248.869492,280.408661 248.345856,277.883575 
	C247.914581,275.803772 245.990067,274.765839 244.207001,273.800995 
	C241.910324,272.558258 240.319336,274.121246 238.874146,275.376190 
	C221.433929,290.520416 201.134232,301.526764 182.235504,314.556458 
	C180.580002,315.697876 179.000992,317.559235 176.446793,316.735992 
	C176.249390,314.463287 178.101608,313.565765 179.239624,312.281738 
	C192.713135,297.079803 206.281754,281.961304 219.637772,266.657135 
	C221.425552,264.608582 224.594345,262.944397 223.490677,259.005127 
z"/>
<path fill="#000000" opacity="1.000000" stroke="none" 
	d="
M233.104904,185.662979 
	C245.649933,186.491943 254.702423,192.077805 260.195526,202.983292 
	C262.159851,206.883087 262.170258,211.059952 258.595642,213.931030 
	C254.904572,216.895645 251.285416,214.743500 248.249588,212.173401 
	C245.076416,209.487015 242.289917,206.333847 239.053619,203.734283 
	C233.068436,198.926682 228.829422,199.696259 224.481766,206.008087 
	C220.331757,212.032974 218.673386,219.044479 216.605789,225.891159 
	C215.993698,227.918106 215.500366,229.980927 214.399002,231.933395 
	C212.140671,218.506989 210.385864,205.136917 219.256195,193.110825 
	C222.538467,188.660843 226.691788,185.449951 233.104904,185.662979 
z"/>
<path fill="#000000" opacity="1.000000" stroke="none" 
	d="
M288.346741,252.721954 
	C282.706665,247.366547 279.590485,241.070160 278.327759,233.820679 
	C278.130798,232.689865 277.930115,231.471619 278.142578,230.373398 
	C278.904449,226.435120 279.613525,221.711624 284.256744,221.098221 
	C288.658020,220.516785 290.583557,224.657455 292.115662,228.235870 
	C293.225861,230.828842 294.031799,233.552017 295.140991,236.145477 
	C298.195618,243.287643 302.189850,244.400208 308.278168,239.750626 
	C315.555298,234.193161 321.194458,227.344009 324.456970,218.677277 
	C324.825684,217.697800 324.594116,216.202118 326.674591,216.098221 
	C327.810364,218.303986 327.641144,220.882874 327.187408,223.133240 
	C324.686615,235.535889 319.725037,246.549881 308.613098,253.772766 
	C301.005615,258.717743 295.654175,258.494812 288.346741,252.721954 
z"/>
<path fill="#000000" opacity="1.000000" stroke="none" 
	d="
M291.705322,194.209717 
	C296.595856,199.291077 297.628357,204.900391 295.171814,210.989426 
	C292.138916,218.507202 284.775024,221.610886 277.756592,218.601028 
	C270.365265,215.431244 267.033569,206.635269 270.338348,199.016342 
	C273.497406,191.733490 281.393036,188.674988 288.549591,192.020370 
	C289.583801,192.503815 290.472565,193.298538 291.705322,194.209717 
z"/>
</svg>