<svg version="1.1" id="Layer_1" xmlns="http://www.w3.org/2000/svg" xmlns:xlink="http://www.w3.org/1999/xlink" x="0px" y="0px"
	 width="100%" viewBox="0 0 64 64" enable-background="new 0 0 64 64" xml:space="preserve">
<path fill="#000000" opacity="1.000000" stroke="none" 
	d="
M65.000000,22.999712 
	C65.000000,37.333107 65.000000,51.166435 65.000000,64.999817 
	C43.666748,64.999878 22.333498,64.999878 1.000186,64.999939 
	C1.000124,43.666756 1.000124,22.333509 1.000062,1.000198 
	C22.333239,1.000132 43.666477,1.000132 64.999863,1.000066 
	C65.000000,8.166549 65.000000,15.333098 65.000000,22.999712 
M18.302696,25.344379 
	C18.302696,25.344379 18.243740,25.280827 18.038586,26.073771 
	C18.721548,26.714218 19.476410,27.963892 20.075447,27.893198 
	C23.235628,27.520243 26.356520,26.814407 29.491041,26.224054 
	C27.164057,29.849403 24.459654,33.592747 20.800726,35.361423 
	C17.075052,37.162365 12.409866,37.019691 8.177498,37.724487 
	C8.177498,39.994698 8.177498,42.299229 8.177498,44.911983 
	C9.463634,44.828663 11.239073,45.149666 11.540946,44.624176 
	C13.696133,40.872490 17.216999,42.396027 20.271563,41.947662 
	C23.281403,41.505859 26.395535,41.034546 29.166792,39.869465 
	C34.139309,37.778934 37.835098,39.770802 37.987129,45.136700 
	C38.060329,47.720287 37.999748,50.307667 37.999748,52.808422 
	C41.047260,52.808422 43.351868,52.808422 45.953541,52.808422 
	C45.953541,51.823475 46.293476,50.629642 45.901211,50.295582 
	C41.758755,46.767754 43.278969,42.031651 42.945553,37.666538 
	C42.853771,36.464905 42.046642,35.332664 41.692001,34.131886 
	C41.386044,33.095947 41.256672,32.007858 41.049229,30.942825 
	C42.145824,30.877853 43.242668,30.755093 44.338970,30.759714 
	C46.761391,30.769926 50.068077,31.867428 51.430492,30.689625 
	C54.758999,27.812149 59.994621,25.294407 57.324230,18.623121 
	C54.992867,19.747169 52.750584,20.828268 49.823635,22.239471 
	C49.823635,15.498717 49.823635,9.294103 49.823635,3.253078 
	C38.278057,3.253078 27.338001,3.253078 16.008427,3.253078 
	C16.008427,9.957960 15.920663,16.420347 16.112644,22.874413 
	C16.138433,23.741341 17.575161,24.566301 18.302696,25.344379 
M18.000025,48.655201 
	C17.839146,46.782345 17.678268,44.909492 17.517391,43.036636 
	C17.121363,43.086128 16.725336,43.135620 16.329308,43.185108 
	C16.329308,49.707283 16.329308,56.229454 16.329308,62.645622 
	C27.711065,62.645622 38.760056,62.645622 49.394283,62.645622 
	C49.394283,52.570866 49.394283,42.857262 49.394283,33.143661 
	C48.929520,33.151428 48.464760,33.159195 47.999996,33.166958 
	C47.999996,34.708218 48.000011,36.249474 47.999996,37.790730 
	C47.999935,43.947983 47.813408,50.112980 48.068527,56.259640 
	C48.225914,60.051632 46.802475,61.255196 43.144775,61.059895 
	C38.498482,60.811806 33.828892,60.999969 29.169350,60.999977 
	C18.000027,60.999992 18.000027,60.999977 18.000025,48.655201 
M36.373016,57.999992 
	C31.959219,57.999992 27.545424,57.999992 23.131626,57.999992 
	C23.152296,58.477425 23.172968,58.954861 23.193638,59.432293 
	C29.739832,59.432293 36.286026,59.432293 42.832218,59.432293 
	C42.844475,58.954861 42.856728,58.477425 42.868980,57.999992 
	C41.020432,57.999992 39.171886,57.999992 36.373016,57.999992 
z"/>
<path fill="#7066FF" opacity="1.000000" stroke="none" 
	d="
M18.358528,25.410696 
	C17.575161,24.566301 16.138433,23.741341 16.112644,22.874413 
	C15.920663,16.420347 16.008427,9.957960 16.008427,3.253078 
	C27.338001,3.253078 38.278057,3.253078 49.823635,3.253078 
	C49.823635,9.294103 49.823635,15.498717 49.823635,22.239471 
	C52.750584,20.828268 54.992867,19.747169 57.324230,18.623121 
	C59.994621,25.294407 54.758999,27.812149 51.430492,30.689625 
	C50.068077,31.867428 46.761391,30.769926 44.338970,30.759714 
	C43.242668,30.755093 42.145824,30.877853 41.049229,30.942825 
	C41.256672,32.007858 41.386044,33.095947 41.692001,34.131886 
	C42.046642,35.332664 42.853771,36.464905 42.945553,37.666538 
	C43.278969,42.031651 41.758755,46.767754 45.901211,50.295582 
	C46.293476,50.629642 45.953541,51.823475 45.953541,52.808422 
	C43.351868,52.808422 41.047260,52.808422 37.999748,52.808422 
	C37.999748,50.307667 38.060329,47.720287 37.987129,45.136700 
	C37.835098,39.770802 34.139309,37.778934 29.166792,39.869465 
	C26.395535,41.034546 23.281403,41.505859 20.271563,41.947662 
	C17.216999,42.396027 13.696133,40.872490 11.540946,44.624176 
	C11.239073,45.149666 9.463634,44.828663 8.177498,44.911983 
	C8.177498,42.299229 8.177498,39.994698 8.177498,37.724487 
	C12.409866,37.019691 17.075052,37.162365 20.800726,35.361423 
	C24.459654,33.592747 27.164057,29.849403 29.491041,26.224054 
	C26.356520,26.814407 23.235628,27.520243 20.075447,27.893198 
	C19.476410,27.963892 18.721548,26.714218 18.387220,25.436819 
	C24.324915,18.787058 31.328739,19.320673 37.133846,20.446302 
	C38.285961,17.716810 39.273727,15.376689 40.261494,13.036567 
	C41.829674,13.799296 44.453548,14.269360 44.761822,15.381365 
	C45.582783,18.342703 45.396149,21.573692 39.357750,21.253408 
	C43.280533,22.552664 45.692097,23.351393 48.000027,24.115797 
	C48.000027,19.284119 48.126701,14.707322 47.933163,10.144106 
	C47.862881,8.487108 47.028046,6.862537 46.542053,5.223171 
	C45.117069,5.869973 43.717194,6.582281 42.258568,7.141284 
	C41.231022,7.535079 40.129818,7.928881 39.050804,7.960771 
	C35.563995,8.063822 32.041862,8.274529 28.594162,7.893465 
	C26.626669,7.676003 24.640127,6.608875 22.908543,5.529186 
	C20.569366,4.070647 18.116295,5.029065 18.067375,8.009153 
	C17.972208,13.806512 18.240681,19.609840 18.358528,25.410696 
M25.816551,37.995552 
	C30.263987,35.638317 34.706276,32.995632 39.295361,38.495464 
	C35.891724,32.161526 36.564697,28.220543 41.695965,25.261826 
	C36.518169,24.526768 32.032993,20.222525 26.774326,22.800653 
	C26.737337,23.276581 26.700350,23.752508 26.663361,24.228436 
	C29.393137,24.228436 32.122910,24.228436 34.852688,24.228436 
	C35.126099,24.623430 35.399513,25.018425 35.672924,25.413420 
	C31.886686,29.382000 28.100449,33.350582 23.875099,37.701874 
	C23.709949,38.040237 23.544800,38.378601 23.379650,38.716965 
	C23.944471,38.504848 24.509291,38.292728 25.816551,37.995552 
M41.141460,49.600029 
	C41.141460,45.816898 41.141460,42.033768 41.141460,38.250633 
	C40.016125,41.957649 39.974323,45.642097 40.086079,49.321877 
	C40.096333,49.659386 41.087921,49.967091 41.141460,49.600029 
z"/>
<path fill="#7066FF" opacity="1.000000" stroke="none" 
	d="
M18.000027,49.127510 
	C18.000027,60.999977 18.000027,60.999992 29.169350,60.999977 
	C33.828892,60.999969 38.498482,60.811806 43.144775,61.059895 
	C46.802475,61.255196 48.225914,60.051632 48.068527,56.259640 
	C47.813408,50.112980 47.999935,43.947983 47.999996,37.790730 
	C48.000011,36.249474 47.999996,34.708218 47.999996,33.166958 
	C48.464760,33.159195 48.929520,33.151428 49.394283,33.143661 
	C49.394283,42.857262 49.394283,52.570866 49.394283,62.645622 
	C38.760056,62.645622 27.711065,62.645622 16.329308,62.645622 
	C16.329308,56.229454 16.329308,49.707283 16.329308,43.185108 
	C16.725336,43.135620 17.121363,43.086128 17.517391,43.036636 
	C17.678268,44.909492 17.839146,46.782345 18.000027,49.127510 
z"/>
<path fill="#7066FF" opacity="1.000000" stroke="none" 
	d="
M36.848179,57.999992 
	C39.171886,57.999992 41.020432,57.999992 42.868980,57.999992 
	C42.856728,58.477425 42.844475,58.954861 42.832218,59.432293 
	C36.286026,59.432293 29.739832,59.432293 23.193638,59.432293 
	C23.172968,58.954861 23.152296,58.477425 23.131626,57.999992 
	C27.545424,57.999992 31.959219,57.999992 36.848179,57.999992 
z"/>
<path fill="#000000" opacity="1.000000" stroke="none" 
	d="
M18.330612,25.377537 
	C18.240681,19.609840 17.972208,13.806512 18.067375,8.009153 
	C18.116295,5.029065 20.569366,4.070647 22.908543,5.529186 
	C24.640127,6.608875 26.626669,7.676003 28.594162,7.893465 
	C32.041862,8.274529 35.563995,8.063822 39.050804,7.960771 
	C40.129818,7.928881 41.231022,7.535079 42.258568,7.141284 
	C43.717194,6.582281 45.117069,5.869973 46.542053,5.223171 
	C47.028046,6.862537 47.862881,8.487108 47.933163,10.144106 
	C48.126701,14.707322 48.000027,19.284119 48.000027,24.115797 
	C45.692097,23.351393 43.280533,22.552664 39.357750,21.253408 
	C45.396149,21.573692 45.582783,18.342703 44.761822,15.381365 
	C44.453548,14.269360 41.829674,13.799296 40.261494,13.036567 
	C39.273727,15.376689 38.285961,17.716810 37.133846,20.446302 
	C31.328739,19.320673 24.324915,18.787058 18.489798,25.040348 
	C18.243740,25.280827 18.302696,25.344379 18.330612,25.377537 
z"/>
<path fill="#000000" opacity="1.000000" stroke="none" 
	d="
M24.314209,37.319160 
	C28.100449,33.350582 31.886686,29.382000 35.672924,25.413420 
	C35.399513,25.018425 35.126099,24.623430 34.852688,24.228436 
	C32.122910,24.228436 29.393137,24.228436 26.663361,24.228436 
	C26.700350,23.752508 26.737337,23.276581 26.774326,22.800653 
	C32.032993,20.222525 36.518169,24.526768 41.695965,25.261826 
	C36.564697,28.220543 35.891724,32.161526 39.295361,38.495464 
	C34.706276,32.995632 30.263987,35.638317 25.256847,37.846230 
	C24.569502,37.570992 24.441856,37.445076 24.314209,37.319160 
z"/>
<path fill="#000000" opacity="1.000000" stroke="none" 
	d="
M41.382641,49.944332 
	C41.087921,49.967091 40.096333,49.659386 40.086079,49.321877 
	C39.974323,45.642097 40.016125,41.957649 41.141460,38.250633 
	C41.141460,42.033768 41.141460,45.816898 41.382641,49.944332 
z"/>
<path fill="#000000" opacity="1.000000" stroke="none" 
	d="
M24.885628,37.888760 
	C24.509291,38.292728 23.944471,38.504848 23.379650,38.716965 
	C23.544800,38.378601 23.709949,38.040237 24.094654,37.510517 
	C24.441856,37.445076 24.569502,37.570992 24.885628,37.888760 
z"/>
</svg>